<?xml version="1.0" encoding="utf-8"?>
<svg width="80px" height="34px" viewBox="0 0 80 34" version="1.1" xmlns:xlink="http://www.w3.org/1999/xlink" xmlns="http://www.w3.org/2000/svg">
  <desc>Created with Lunacy</desc>
  <defs>
    <rect width="80" height="34" id="artboard_1" />
    <clipPath id="clip_1">
      <use xlink:href="#artboard_1" clip-rule="evenodd" />
    </clipPath>
  </defs>
  <g id="Logo" clip-path="url(#clip_1)">
    <use xlink:href="#artboard_1" stroke="none" fill="#FFFFFF" fill-opacity="0" />
    <path d="M2.999 0L25.001 0Q25.1483 0 25.295 0.014441Q25.4416 0.028882 25.5861 0.0576249Q25.7306 0.0863679 25.8716 0.129136Q26.0125 0.171904 26.1487 0.228285Q26.2848 0.284667 26.4147 0.354118Q26.5447 0.42357 26.6672 0.505423Q26.7897 0.587276 26.9035 0.680742Q27.0174 0.774208 27.1216 0.878387Q27.2258 0.982566 27.3193 1.09645Q27.4127 1.21034 27.4946 1.33284Q27.5764 1.45535 27.6459 1.58528Q27.7153 1.71522 27.7717 1.85133Q27.8281 1.98745 27.8709 2.12844Q27.9136 2.26942 27.9424 2.41392Q27.9711 2.55842 27.9856 2.70505Q28 2.85167 28 2.999L28 17.001Q28 17.1483 27.9856 17.295Q27.9711 17.4416 27.9424 17.5861Q27.9136 17.7306 27.8709 17.8716Q27.8281 18.0126 27.7717 18.1487Q27.7153 18.2848 27.6459 18.4147Q27.5764 18.5447 27.4946 18.6672Q27.4127 18.7897 27.3193 18.9035Q27.2258 19.0174 27.1216 19.1216Q27.0174 19.2258 26.9035 19.3193Q26.7897 19.4127 26.6672 19.4946Q26.5447 19.5764 26.4147 19.6459Q26.2848 19.7153 26.1487 19.7717Q26.0125 19.8281 25.8716 19.8709Q25.7306 19.9136 25.5861 19.9424Q25.4416 19.9711 25.295 19.9856Q25.1483 20 25.001 20L2.999 20Q2.85167 20 2.70505 19.9856Q2.55842 19.9711 2.41392 19.9424Q2.26942 19.9136 2.12844 19.8709Q1.98745 19.8281 1.85133 19.7717Q1.71522 19.7153 1.58528 19.6459Q1.45535 19.5764 1.33284 19.4946Q1.21034 19.4127 1.09645 19.3193Q0.982566 19.2258 0.878387 19.1216Q0.774208 19.0174 0.680742 18.9035Q0.587276 18.7897 0.505423 18.6672Q0.42357 18.5447 0.354118 18.4147Q0.284667 18.2848 0.228285 18.1487Q0.171904 18.0126 0.129136 17.8716Q0.0863679 17.7306 0.0576249 17.5861Q0.028882 17.4416 0.014441 17.295Q0 17.1483 0 17.001L0 2.999Q0 2.85167 0.014441 2.70505Q0.028882 2.55842 0.0576249 2.41392Q0.0863679 2.26942 0.129136 2.12844Q0.171904 1.98745 0.228285 1.85133Q0.284667 1.71522 0.354118 1.58528Q0.42357 1.45535 0.505423 1.33284Q0.587276 1.21034 0.680742 1.09645Q0.774208 0.982566 0.878387 0.878387Q0.982566 0.774208 1.09645 0.680742Q1.21034 0.587276 1.33284 0.505423Q1.45535 0.42357 1.58528 0.354118Q1.71522 0.284667 1.85133 0.228285Q1.98745 0.171904 2.12844 0.129136Q2.26942 0.0863679 2.41392 0.0576249Q2.55842 0.028882 2.70505 0.014441Q2.85167 0 2.999 0L2.999 0Z" transform="translate(1 1)" id="Rectangle" fill="#000000" stroke="none" />
    <g id="M" fill="#FFFFFF" transform="translate(4 3)">
      <path d="M10.542 13.351L8.288 13.351L8.12 9.557Q8.05 8.199 8.05 7.135Q8.05 6.323 8.092 5.595L6.594 12.329L4.424 12.329L2.828 5.595Q2.912 6.813 2.912 7.891Q2.912 8.703 2.87 9.585L2.702 13.351L0.462 13.351L1.19 3.649L4.088 3.649L5.544 10.229L6.902 3.649L9.814 3.649L10.542 13.351Z" />
    </g>
    <g id="rkdown" transform="translate(30 3)">
      <path d="M8.694 13.4014L8.694 2.77537L6.482 3.01337L6.482 13.4014L8.694 13.4014ZM20.874 3.01337L20.874 13.4014L18.914 13.4014L18.802 12.5334Q18.018 13.6394 16.688 13.6394Q15.302 13.6394 14.581 12.5754Q13.86 11.5114 13.86 9.66337Q13.86 8.52937 14.238 7.63337Q14.616 6.73737 15.309 6.23337Q16.002 5.72937 16.898 5.72937Q17.962 5.72937 18.662 6.42937L18.662 2.77537L20.874 3.01337ZM28.504 6.77237Q27.538 5.72937 25.83 5.72937Q24.71 5.72937 23.891 6.21937Q23.072 6.70937 22.631 7.59837Q22.19 8.48737 22.19 9.67737Q22.19 11.5534 23.163 12.5964Q24.136 13.6394 25.83 13.6394Q26.95 13.6394 27.769 13.1494Q28.588 12.6594 29.029 11.7704Q29.47 10.8814 29.47 9.69137Q29.47 7.81537 28.504 6.77237ZM47.138 6.31737Q46.592 5.72937 45.626 5.72937Q44.94 5.72937 44.387 6.00937Q43.834 6.28937 43.358 6.84937L43.204 5.96737L41.272 5.96737L41.272 13.4014L43.484 13.4014L43.484 8.31937Q44.1 7.35337 44.772 7.35337Q45.122 7.35337 45.297 7.57037Q45.472 7.78737 45.472 8.34737L45.472 13.4014L47.684 13.4014L47.684 7.96937Q47.684 6.90537 47.138 6.31737ZM5.642 5.85537Q5.306 5.75737 4.9 5.75737Q4.256 5.75737 3.745 6.19837Q3.234 6.63937 2.982 7.40937L2.8 5.96737L0.868 5.96737L0.868 13.4014L3.08 13.4014L3.08 9.71937Q3.276 8.80937 3.619 8.35437Q3.962 7.89937 4.62 7.89937Q4.872 7.89937 5.292 7.99737L5.642 5.85537ZM11.032 9.22937L13.286 5.96737L11.032 5.96737L8.764 9.34137L10.976 13.4014L13.468 13.4014L11.032 9.22937ZM40.334 5.96737L38.794 13.4014L36.148 13.4014L35.154 7.94137L34.174 13.4014L31.556 13.4014L29.974 5.96737L32.214 5.96737L32.984 11.7494L34.146 5.96737L36.302 5.96737L37.324 11.7494L38.22 5.96737L40.334 5.96737ZM17.374 12.0154Q18.144 12.0154 18.662 11.1754L18.662 7.96937Q18.396 7.64737 18.123 7.49337Q17.85 7.33937 17.5 7.33937Q16.884 7.33937 16.52 7.91337Q16.156 8.48737 16.156 9.67737Q16.156 10.9794 16.471 11.4974Q16.786 12.0154 17.374 12.0154ZM24.822 7.92037Q25.158 7.35337 25.83 7.35337Q26.516 7.35337 26.845 7.91337Q27.174 8.47337 27.174 9.69137Q27.174 10.8814 26.838 11.4484Q26.502 12.0154 25.83 12.0154Q25.144 12.0154 24.815 11.4554Q24.486 10.8954 24.486 9.67737Q24.486 8.48737 24.822 7.92037Z" />
    </g>
    <g id="a" fill="#FFFFFF" transform="translate(22 3)">
      <path d="M6.776 11.195Q6.776 11.615 6.895 11.811Q7.014 12.007 7.28 12.105L6.818 13.547Q6.132 13.491 5.698 13.246Q5.264 13.001 5.026 12.469Q4.298 13.589 2.786 13.589Q1.68 13.589 1.022 12.945Q0.364 12.301 0.364 11.265Q0.364 10.047 1.26 9.403Q2.156 8.759 3.85 8.759L4.606 8.759L4.606 8.437Q4.606 7.779 4.326 7.534Q4.046 7.289 3.346 7.289Q2.982 7.289 2.464 7.394Q1.946 7.499 1.4 7.681L0.896 6.225Q1.596 5.959 2.331 5.819Q3.066 5.679 3.696 5.679Q5.292 5.679 6.034 6.337Q6.776 6.995 6.776 8.311L6.776 11.195ZM3.43 12.007Q4.186 12.007 4.606 11.293L4.606 9.977L4.06 9.977Q3.304 9.977 2.933 10.243Q2.562 10.509 2.562 11.069Q2.562 11.517 2.793 11.762Q3.024 12.007 3.43 12.007Z" />
    </g>
    <g id="Fleche-instance" transform="translate(15 7)">
      <path d="M0 0L2 0L2 5L0 5L0 0Z" transform="translate(2 0)" id="Rectangle-2" fill="#FFFFFF" stroke="none" />
      <path d="M3 0L6 4L0 4L3 0Z" transform="matrix(1 0 0 -1 0 9)" id="Triangle" fill="#FFFFFF" stroke="none" />
    </g>
    <g id="Converter" transform="translate(4 19)">
      <path d="M4.872 3.46137Q5.782 3.46137 6.489 3.72737Q7.196 3.99337 7.826 4.52537L6.734 5.82737Q6.3 5.49137 5.88 5.32337Q5.46 5.15537 4.984 5.15537Q4.004 5.15537 3.437 5.98137Q2.87 6.80737 2.87 8.52937Q2.87 10.2234 3.437 11.0424Q4.004 11.8614 5.012 11.8614Q5.544 11.8614 5.978 11.6584Q6.412 11.4554 6.916 11.0774L7.938 12.3934Q7.392 12.9394 6.615 13.2894Q5.838 13.6394 4.9 13.6394Q3.556 13.6394 2.562 13.0514Q1.568 12.4634 1.015 11.3084Q0.462 10.1534 0.462 8.52937Q0.462 6.94737 1.029 5.79937Q1.596 4.65137 2.597 4.05637Q3.598 3.46137 4.872 3.46137ZM49.413 13.4854Q49.952 13.3314 50.358 13.0514L49.616 11.6514Q49.196 11.8894 48.818 11.8894Q48.454 11.8894 48.286 11.6654Q48.118 11.4414 48.118 10.9234L48.118 7.50737L49.588 7.50737L49.826 5.96737L48.118 5.96737L48.118 4.10537L45.906 4.35737L45.906 5.96737L44.856 5.96737L44.856 7.50737L45.906 7.50737L45.906 10.9514Q45.906 13.6254 48.342 13.6394Q48.874 13.6394 49.413 13.4854ZM12.138 5.72937Q13.846 5.72937 14.812 6.77237Q15.778 7.81537 15.778 9.69137Q15.778 10.8814 15.337 11.7704Q14.896 12.6594 14.077 13.1494Q13.258 13.6394 12.138 13.6394Q10.444 13.6394 9.471 12.5964Q8.498 11.5534 8.498 9.67737Q8.498 8.48737 8.939 7.59837Q9.38 6.70937 10.199 6.21937Q11.018 5.72937 12.138 5.72937ZM22.96 6.31737Q22.414 5.72937 21.448 5.72937Q20.762 5.72937 20.209 6.00937Q19.656 6.28937 19.18 6.84937L19.026 5.96737L17.094 5.96737L17.094 13.4014L19.306 13.4014L19.306 8.31937Q19.922 7.35337 20.594 7.35337Q20.944 7.35337 21.119 7.57037Q21.294 7.78737 21.294 8.34737L21.294 13.4014L23.506 13.4014L23.506 7.96937Q23.506 6.90537 22.96 6.31737ZM38.794 10.3354Q38.836 9.99937 38.836 9.53737Q38.836 7.74537 37.926 6.73737Q37.016 5.72937 35.406 5.72937Q34.314 5.72937 33.53 6.25437Q32.746 6.77937 32.34 7.68237Q31.934 8.58537 31.934 9.71937Q31.934 11.5114 32.9 12.5754Q33.866 13.6394 35.672 13.6394Q37.268 13.6394 38.57 12.6034L37.66 11.3714Q37.17 11.7074 36.75 11.8684Q36.33 12.0294 35.882 12.0294Q35.14 12.0294 34.72 11.6514Q34.3 11.2734 34.188 10.3354L38.794 10.3354ZM57.582 9.53737Q57.582 9.99937 57.54 10.3354L52.934 10.3354Q53.046 11.2734 53.466 11.6514Q53.886 12.0294 54.628 12.0294Q55.076 12.0294 55.496 11.8684Q55.916 11.7074 56.406 11.3714L57.316 12.6034Q56.014 13.6394 54.418 13.6394Q52.612 13.6394 51.646 12.5754Q50.68 11.5114 50.68 9.71937Q50.68 8.58537 51.086 7.68237Q51.492 6.77937 52.276 6.25437Q53.06 5.72937 54.152 5.72937Q55.762 5.72937 56.672 6.73737Q57.582 7.74537 57.582 9.53737ZM44.114 5.75737Q44.52 5.75737 44.856 5.85537L44.506 7.99737Q44.086 7.89937 43.834 7.89937Q43.176 7.89937 42.833 8.35437Q42.49 8.80937 42.294 9.71937L42.294 13.4014L40.082 13.4014L40.082 5.96737L42.014 5.96737L42.196 7.40937Q42.448 6.63937 42.959 6.19837Q43.47 5.75737 44.114 5.75737ZM63.602 5.85537Q63.266 5.75737 62.86 5.75737Q62.216 5.75737 61.705 6.19837Q61.194 6.63937 60.942 7.40937L60.76 5.96737L58.828 5.96737L58.828 13.4014L61.04 13.4014L61.04 9.71937Q61.236 8.80937 61.579 8.35437Q61.922 7.89937 62.58 7.89937Q62.832 7.89937 63.252 7.99737L63.602 5.85537ZM31.57 5.96737L29.232 13.4014L26.614 13.4014L24.22 5.96737L26.628 5.96737L27.944 11.7214L29.316 5.96737L31.57 5.96737ZM35.462 7.19937Q36.638 7.19937 36.666 8.90737L36.666 9.00537L34.188 9.00537Q34.258 8.03937 34.573 7.61937Q34.888 7.19937 35.462 7.19937ZM55.412 8.90737Q55.384 7.19937 54.208 7.19937Q53.634 7.19937 53.319 7.61937Q53.004 8.03937 52.934 9.00537L55.412 9.00537L55.412 8.90737ZM12.138 7.35337Q11.466 7.35337 11.13 7.92037Q10.794 8.48737 10.794 9.67737Q10.794 10.8954 11.123 11.4554Q11.452 12.0154 12.138 12.0154Q12.81 12.0154 13.146 11.4484Q13.482 10.8814 13.482 9.69137Q13.482 8.47337 13.153 7.91337Q12.824 7.35337 12.138 7.35337Z" />
    </g>
  </g>
</svg>